<svg width="20" height="20" viewBox="0 0 20 20" fill="none" xmlns="http://www.w3.org/2000/svg">
<path fill-rule="evenodd" clip-rule="evenodd" d="M15.69 11.1501C15.7918 11.1501 15.8765 11.2204 15.8935 11.3193L16.0465 12.3659C16.2965 12.4648 16.5206 12.5975 16.7325 12.7541L17.7457 12.3577C17.8389 12.3289 17.9455 12.3582 17.9963 12.4489L18.8101 13.8177C18.8567 13.9002 18.8351 14.0115 18.7589 14.0692L17.8987 14.721C17.9198 14.8446 17.928 14.9766 17.928 15.1084C17.928 15.2444 17.9197 15.3721 17.9028 15.4958L18.7548 16.1476C18.8352 16.2054 18.8569 16.3084 18.8061 16.3991L17.9915 17.7679C17.9405 17.8584 17.8348 17.8912 17.7416 17.8582L16.7284 17.4627C16.5208 17.6193 16.2916 17.7512 16.0416 17.8501L15.8894 18.8975C15.8767 18.9964 15.7918 19.0667 15.69 19.0667H14.0624C13.9607 19.0667 13.8802 18.9964 13.859 18.8975L13.706 17.8501C13.4561 17.7512 13.2317 17.6193 13.0199 17.4627L12.0068 17.8582C11.9135 17.8871 11.807 17.8586 11.7561 17.7679L10.9423 16.3991C10.8957 16.3166 10.9173 16.2054 10.9936 16.1476L11.8538 15.4958C11.8326 15.3721 11.8245 15.2362 11.8245 15.1084C11.8245 14.9807 11.8415 14.8446 11.8627 14.721L11.0017 14.0692C10.917 14.0114 10.9004 13.9043 10.9513 13.8177L11.761 12.4489C11.8119 12.3582 11.9176 12.3248 12.0108 12.3577L13.024 12.7541C13.2317 12.6015 13.4608 12.4648 13.7109 12.3659L13.863 11.3193C13.88 11.2204 13.9607 11.1501 14.0624 11.1501H15.69ZM14.8762 13.624C14.0369 13.624 13.3503 14.292 13.3503 15.1084C13.3504 15.9247 14.037 16.5928 14.8762 16.5928C15.7155 16.5928 16.402 15.9247 16.4021 15.1084C16.4021 14.292 15.7155 13.624 14.8762 13.624Z" fill="#0D4AC3"/>
<path fill-rule="evenodd" clip-rule="evenodd" d="M15.2913 1.3999C16.2621 1.40012 17.0563 2.19414 17.0564 3.16504V10.7749C16.519 10.495 15.923 10.3121 15.2913 10.2508V9.34505H9.99422V14.5225C9.97304 14.7065 9.96087 14.8935 9.96086 15.0832C9.96086 15.8784 10.1534 16.6286 10.4923 17.291H2.93123C1.96013 17.291 1.16532 16.4962 1.16528 15.5251V3.16504C1.1654 2.19401 1.96018 1.3999 2.93123 1.3999H15.2913ZM2.93123 15.5251H8.22827V3.16504H2.93123V15.5251ZM9.99422 7.5791H15.2913V3.16504H9.99422V7.5791Z" fill="#0D4AC3"/>
</svg>
