<svg preserveAspectRatio="xMidYMid meet" width="100%" height="100%" overflow="visible" style="display: block;" viewBox="0 0 220.001 220" fill="none" xmlns="http://www.w3.org/2000/svg" aria-hidden="true">
<g id="Donut chart">
<g id="Other">
<mask id="path-1-outside-1_0_919" maskUnits="userSpaceOnUse" x="0.000348091" y="0" width="220" height="220" fill="black">
<rect fill="white" x="0.000348091" width="220" height="220"/>
<path d="M218 110C218 169.647 169.647 218 110 218C50.3536 218 2.00035 169.647 2.00035 110C2.00035 50.3532 50.3536 2 110 2C169.647 2 218 50.3532 218 110ZM39.8004 110C39.8004 148.77 71.23 180.2 110 180.2C148.771 180.2 180.2 148.77 180.2 110C180.2 71.2296 148.771 39.8 110 39.8C71.23 39.8 39.8004 71.2296 39.8004 110Z"/>
</mask>
<path d="M218 110C218 169.647 169.647 218 110 218C50.3536 218 2.00035 169.647 2.00035 110C2.00035 50.3532 50.3536 2 110 2C169.647 2 218 50.3532 218 110ZM39.8004 110C39.8004 148.77 71.23 180.2 110 180.2C148.771 180.2 180.2 148.77 180.2 110C180.2 71.2296 148.771 39.8 110 39.8C71.23 39.8 39.8004 71.2296 39.8004 110Z" fill="var(--fill-0, #916FEF)"/>
<path d="M218 110C218 169.647 169.647 218 110 218C50.3536 218 2.00035 169.647 2.00035 110C2.00035 50.3532 50.3536 2 110 2C169.647 2 218 50.3532 218 110ZM39.8004 110C39.8004 148.77 71.23 180.2 110 180.2C148.771 180.2 180.2 148.77 180.2 110C180.2 71.2296 148.771 39.8 110 39.8C71.23 39.8 39.8004 71.2296 39.8004 110Z" stroke="var(--stroke-0, white)" stroke-width="4" mask="url(#path-1-outside-1_0_919)"/>
</g>
<g id="5">
<mask id="path-2-outside-2_0_919" maskUnits="userSpaceOnUse" x="-0.999652" y="0" width="222" height="221" fill="black">
<rect fill="white" x="-0.999652" width="222" height="221"/>
<path d="M110 2C137.47 2 163.907 12.4672 183.931 31.2714C203.956 50.0755 216.062 75.8034 217.787 103.219C219.512 130.634 210.725 157.676 193.216 178.842C175.706 200.007 150.789 213.706 123.536 217.148C96.2834 220.591 68.7428 213.52 46.5195 197.374C24.2962 181.228 9.06057 157.22 3.91332 130.237C-1.23394 103.254 4.09407 75.3239 18.813 52.1307C33.5319 28.9374 56.5354 12.2244 83.1419 5.393L92.5424 42.0055C75.2482 46.4458 60.2958 57.3093 50.7285 72.3849C41.1613 87.4605 37.6981 105.615 41.0438 123.154C44.3895 140.693 54.2927 156.298 68.7378 166.793C83.1829 177.288 101.084 181.884 118.799 179.646C136.513 177.409 152.709 168.505 164.09 154.747C175.472 140.99 181.183 123.412 180.062 105.592C178.941 87.7722 171.071 71.0491 158.056 58.8264C145.04 46.6037 127.856 39.8 110 39.8L110 2Z"/>
</mask>
<path d="M110 2C137.47 2 163.907 12.4672 183.931 31.2714C203.956 50.0755 216.062 75.8034 217.787 103.219C219.512 130.634 210.725 157.676 193.216 178.842C175.706 200.007 150.789 213.706 123.536 217.148C96.2834 220.591 68.7428 213.52 46.5195 197.374C24.2962 181.228 9.06057 157.22 3.91332 130.237C-1.23394 103.254 4.09407 75.3239 18.813 52.1307C33.5319 28.9374 56.5354 12.2244 83.1419 5.393L92.5424 42.0055C75.2482 46.4458 60.2958 57.3093 50.7285 72.3849C41.1613 87.4605 37.6981 105.615 41.0438 123.154C44.3895 140.693 54.2927 156.298 68.7378 166.793C83.1829 177.288 101.084 181.884 118.799 179.646C136.513 177.409 152.709 168.505 164.09 154.747C175.472 140.99 181.183 123.412 180.062 105.592C178.941 87.7722 171.071 71.0491 158.056 58.8264C145.04 46.6037 127.856 39.8 110 39.8L110 2Z" fill="var(--fill-0, #920C00)"/>
<path d="M110 2C137.47 2 163.907 12.4672 183.931 31.2714C203.956 50.0755 216.062 75.8034 217.787 103.219C219.512 130.634 210.725 157.676 193.216 178.842C175.706 200.007 150.789 213.706 123.536 217.148C96.2834 220.591 68.7428 213.52 46.5195 197.374C24.2962 181.228 9.06057 157.22 3.91332 130.237C-1.23394 103.254 4.09407 75.3239 18.813 52.1307C33.5319 28.9374 56.5354 12.2244 83.1419 5.393L92.5424 42.0055C75.2482 46.4458 60.2958 57.3093 50.7285 72.3849C41.1613 87.4605 37.6981 105.615 41.0438 123.154C44.3895 140.693 54.2927 156.298 68.7378 166.793C83.1829 177.288 101.084 181.884 118.799 179.646C136.513 177.409 152.709 168.505 164.09 154.747C175.472 140.99 181.183 123.412 180.062 105.592C178.941 87.7722 171.071 71.0491 158.056 58.8264C145.04 46.6037 127.856 39.8 110 39.8L110 2Z" stroke="var(--stroke-0, white)" stroke-width="4" mask="url(#path-2-outside-2_0_919)"/>
</g>
<g id="4">
<mask id="path-3-outside-3_0_919" maskUnits="userSpaceOnUse" x="0.000348091" y="0" width="221" height="221" fill="black">
<rect fill="white" x="0.000348091" width="221" height="221"/>
<path d="M110 2C136.592 2 162.248 11.8102 182.056 29.5514C201.864 47.2927 214.43 71.7179 217.348 98.1487C220.266 124.579 213.331 151.158 197.87 172.793C182.409 194.428 159.511 209.598 133.56 215.399C107.609 221.2 80.4301 217.223 57.2292 204.23C34.0284 191.236 16.4365 170.141 7.82312 144.983C-0.790276 119.825 0.18034 92.3743 10.5491 67.8878C20.9178 43.4012 39.9557 23.6007 64.0162 12.2787L80.1107 46.4811C64.4713 53.8405 52.0967 66.7108 45.357 82.6271C38.6173 98.5433 37.9864 116.386 43.5852 132.739C49.1839 149.091 60.6186 162.804 75.6991 171.249C90.7797 179.695 108.446 182.28 125.314 178.509C142.182 174.739 157.066 164.878 167.116 150.815C177.165 136.753 181.673 119.477 179.776 102.297C177.88 85.1167 169.712 69.2403 156.837 57.7084C143.962 46.1766 127.285 39.8 110 39.8L110 2Z"/>
</mask>
<path d="M110 2C136.592 2 162.248 11.8102 182.056 29.5514C201.864 47.2927 214.43 71.7179 217.348 98.1487C220.266 124.579 213.331 151.158 197.87 172.793C182.409 194.428 159.511 209.598 133.56 215.399C107.609 221.2 80.4301 217.223 57.2292 204.23C34.0284 191.236 16.4365 170.141 7.82312 144.983C-0.790276 119.825 0.18034 92.3743 10.5491 67.8878C20.9178 43.4012 39.9557 23.6007 64.0162 12.2787L80.1107 46.4811C64.4713 53.8405 52.0967 66.7108 45.357 82.6271C38.6173 98.5433 37.9864 116.386 43.5852 132.739C49.1839 149.091 60.6186 162.804 75.6991 171.249C90.7797 179.695 108.446 182.28 125.314 178.509C142.182 174.739 157.066 164.878 167.116 150.815C177.165 136.753 181.673 119.477 179.776 102.297C177.88 85.1167 169.712 69.2403 156.837 57.7084C143.962 46.1766 127.285 39.8 110 39.8L110 2Z" fill="var(--fill-0, #C9824A)"/>
<path d="M110 2C136.592 2 162.248 11.8102 182.056 29.5514C201.864 47.2927 214.43 71.7179 217.348 98.1487C220.266 124.579 213.331 151.158 197.87 172.793C182.409 194.428 159.511 209.598 133.56 215.399C107.609 221.2 80.4301 217.223 57.2292 204.23C34.0284 191.236 16.4365 170.141 7.82312 144.983C-0.790276 119.825 0.18034 92.3743 10.5491 67.8878C20.9178 43.4012 39.9557 23.6007 64.0162 12.2787L80.1107 46.4811C64.4713 53.8405 52.0967 66.7108 45.357 82.6271C38.6173 98.5433 37.9864 116.386 43.5852 132.739C49.1839 149.091 60.6186 162.804 75.6991 171.249C90.7797 179.695 108.446 182.28 125.314 178.509C142.182 174.739 157.066 164.878 167.116 150.815C177.165 136.753 181.673 119.477 179.776 102.297C177.88 85.1167 169.712 69.2403 156.837 57.7084C143.962 46.1766 127.285 39.8 110 39.8L110 2Z" stroke="var(--stroke-0, white)" stroke-width="4" mask="url(#path-3-outside-3_0_919)"/>
</g>
<g id="3">
<mask id="path-4-outside-4_0_919" maskUnits="userSpaceOnUse" x="0.000348091" y="0" width="220" height="221" fill="black">
<rect fill="white" x="0.000348091" width="220" height="221"/>
<path d="M110 2C134.259 2 157.812 10.1673 176.862 25.1858C195.913 40.2043 209.353 61.1993 215.016 84.7879C220.679 108.376 218.236 133.185 208.08 155.215C197.924 177.246 180.646 195.215 159.031 206.229C137.417 217.242 112.723 220.657 88.9306 215.925C65.1379 211.192 43.6313 198.587 27.8765 180.14C12.1216 161.694 3.036 138.48 2.08361 114.24C1.13122 89.9999 8.36753 66.145 22.6265 46.5192L53.2074 68.7375C43.939 81.4942 39.2354 96.9999 39.8545 112.756C40.4735 128.512 46.3792 143.601 56.6198 155.591C66.8605 167.582 80.8397 175.775 96.305 178.851C111.77 181.927 127.821 179.707 141.87 172.549C155.92 165.39 167.15 153.71 173.752 139.39C180.354 125.07 181.942 108.945 178.261 93.6121C174.58 78.2796 165.844 64.6328 153.461 54.8708C141.078 45.1087 125.769 39.8 110 39.8L110 2Z"/>
</mask>
<path d="M110 2C134.259 2 157.812 10.1673 176.862 25.1858C195.913 40.2043 209.353 61.1993 215.016 84.7879C220.679 108.376 218.236 133.185 208.08 155.215C197.924 177.246 180.646 195.215 159.031 206.229C137.417 217.242 112.723 220.657 88.9306 215.925C65.1379 211.192 43.6313 198.587 27.8765 180.14C12.1216 161.694 3.036 138.48 2.08361 114.24C1.13122 89.9999 8.36753 66.145 22.6265 46.5192L53.2074 68.7375C43.939 81.4942 39.2354 96.9999 39.8545 112.756C40.4735 128.512 46.3792 143.601 56.6198 155.591C66.8605 167.582 80.8397 175.775 96.305 178.851C111.77 181.927 127.821 179.707 141.87 172.549C155.92 165.39 167.15 153.71 173.752 139.39C180.354 125.07 181.942 108.945 178.261 93.6121C174.58 78.2796 165.844 64.6328 153.461 54.8708C141.078 45.1087 125.769 39.8 110 39.8L110 2Z" fill="var(--fill-0, #33495C)"/>
<path d="M110 2C134.259 2 157.812 10.1673 176.862 25.1858C195.913 40.2043 209.353 61.1993 215.016 84.7879C220.679 108.376 218.236 133.185 208.08 155.215C197.924 177.246 180.646 195.215 159.031 206.229C137.417 217.242 112.723 220.657 88.9306 215.925C65.1379 211.192 43.6313 198.587 27.8765 180.14C12.1216 161.694 3.036 138.48 2.08361 114.24C1.13122 89.9999 8.36753 66.145 22.6265 46.5192L53.2074 68.7375C43.939 81.4942 39.2354 96.9999 39.8545 112.756C40.4735 128.512 46.3792 143.601 56.6198 155.591C66.8605 167.582 80.8397 175.775 96.305 178.851C111.77 181.927 127.821 179.707 141.87 172.549C155.92 165.39 167.15 153.71 173.752 139.39C180.354 125.07 181.942 108.945 178.261 93.6121C174.58 78.2796 165.844 64.6328 153.461 54.8708C141.078 45.1087 125.769 39.8 110 39.8L110 2Z" stroke="var(--stroke-0, white)" stroke-width="4" mask="url(#path-4-outside-4_0_919)"/>
</g>
<g id="2">
<mask id="path-5-outside-5_0_919" maskUnits="userSpaceOnUse" x="4.00035" y="0" width="216" height="220" fill="black">
<rect fill="white" x="4.00035" width="216" height="220"/>
<path d="M110 2C129.918 2 149.448 7.50794 166.43 17.9149C183.413 28.3218 197.187 43.2223 206.229 60.969C215.271 78.7157 219.23 98.6174 217.667 118.474C216.105 138.33 209.081 157.367 197.374 173.481C185.667 189.594 169.732 202.157 151.33 209.779C132.929 217.401 112.778 219.786 93.1054 216.67C73.433 213.555 55.0054 205.059 39.86 192.124C24.7145 179.188 13.4411 162.317 7.28625 143.374L43.2362 131.693C47.2369 144.006 54.5645 154.972 64.4091 163.381C74.2537 171.789 86.2316 177.31 99.0187 179.336C111.806 181.361 124.904 179.811 136.865 174.856C148.826 169.902 159.184 161.736 166.793 151.263C174.403 140.789 178.968 128.414 179.984 115.508C181 102.601 178.427 89.6652 172.549 78.1299C166.671 66.5945 157.718 56.9092 146.68 50.1447C135.641 43.3802 122.947 39.8 110 39.8L110 2Z"/>
</mask>
<path d="M110 2C129.918 2 149.448 7.50794 166.43 17.9149C183.413 28.3218 197.187 43.2223 206.229 60.969C215.271 78.7157 219.23 98.6174 217.667 118.474C216.105 138.33 209.081 157.367 197.374 173.481C185.667 189.594 169.732 202.157 151.33 209.779C132.929 217.401 112.778 219.786 93.1054 216.67C73.433 213.555 55.0054 205.059 39.86 192.124C24.7145 179.188 13.4411 162.317 7.28625 143.374L43.2362 131.693C47.2369 144.006 54.5645 154.972 64.4091 163.381C74.2537 171.789 86.2316 177.31 99.0187 179.336C111.806 181.361 124.904 179.811 136.865 174.856C148.826 169.902 159.184 161.736 166.793 151.263C174.403 140.789 178.968 128.414 179.984 115.508C181 102.601 178.427 89.6652 172.549 78.1299C166.671 66.5945 157.718 56.9092 146.68 50.1447C135.641 43.3802 122.947 39.8 110 39.8L110 2Z" fill="var(--fill-0, #0D4AC3)"/>
<path d="M110 2C129.918 2 149.448 7.50794 166.43 17.9149C183.413 28.3218 197.187 43.2223 206.229 60.969C215.271 78.7157 219.23 98.6174 217.667 118.474C216.105 138.33 209.081 157.367 197.374 173.481C185.667 189.594 169.732 202.157 151.33 209.779C132.929 217.401 112.778 219.786 93.1054 216.67C73.433 213.555 55.0054 205.059 39.86 192.124C24.7145 179.188 13.4411 162.317 7.28625 143.374L43.2362 131.693C47.2369 144.006 54.5645 154.972 64.4091 163.381C74.2537 171.789 86.2316 177.31 99.0187 179.336C111.806 181.361 124.904 179.811 136.865 174.856C148.826 169.902 159.184 161.736 166.793 151.263C174.403 140.789 178.968 128.414 179.984 115.508C181 102.601 178.427 89.6652 172.549 78.1299C166.671 66.5945 157.718 56.9092 146.68 50.1447C135.641 43.3802 122.947 39.8 110 39.8L110 2Z" stroke="var(--stroke-0, white)" stroke-width="4" mask="url(#path-5-outside-5_0_919)"/>
</g>
<g id="1">
<mask id="path-6-outside-6_0_919" maskUnits="userSpaceOnUse" x="108" y="0" width="113" height="216" fill="black">
<rect fill="white" x="108" width="113" height="216"/>
<path d="M110 2C135.715 2 160.587 11.1755 180.141 27.8762C199.695 44.5768 212.648 67.7065 216.671 93.1051C220.693 118.504 215.522 144.504 202.085 166.43C188.649 188.356 167.831 204.768 143.374 212.714L131.693 176.764C147.59 171.599 161.122 160.931 169.856 146.679C178.589 132.428 181.951 115.527 179.336 99.0183C176.721 82.5093 168.302 67.4749 155.592 56.6195C142.882 45.7641 126.715 39.8 110 39.8L110 2Z"/>
</mask>
<path d="M110 2C135.715 2 160.587 11.1755 180.141 27.8762C199.695 44.5768 212.648 67.7065 216.671 93.1051C220.693 118.504 215.522 144.504 202.085 166.43C188.649 188.356 167.831 204.768 143.374 212.714L131.693 176.764C147.59 171.599 161.122 160.931 169.856 146.679C178.589 132.428 181.951 115.527 179.336 99.0183C176.721 82.5093 168.302 67.4749 155.592 56.6195C142.882 45.7641 126.715 39.8 110 39.8L110 2Z" fill="var(--fill-0, #009684)"/>
<path d="M110 2C135.715 2 160.587 11.1755 180.141 27.8762C199.695 44.5768 212.648 67.7065 216.671 93.1051C220.693 118.504 215.522 144.504 202.085 166.43C188.649 188.356 167.831 204.768 143.374 212.714L131.693 176.764C147.59 171.599 161.122 160.931 169.856 146.679C178.589 132.428 181.951 115.527 179.336 99.0183C176.721 82.5093 168.302 67.4749 155.592 56.6195C142.882 45.7641 126.715 39.8 110 39.8L110 2Z" stroke="var(--stroke-0, white)" stroke-width="4" mask="url(#path-6-outside-6_0_919)"/>
</g>
</g>
</svg>
