<svg preserveAspectRatio="none" width="100%" height="100%" overflow="visible" style="display: block;" viewBox="0 0 20 20" fill="none" xmlns="http://www.w3.org/2000/svg">
<g id="Configure Homepage">
<path id="Union" d="M15.124 10C15.2332 10.0001 15.3246 10.0754 15.3428 10.1816L15.5059 11.3057C15.7742 11.4118 16.0157 11.5536 16.2432 11.7217L17.3311 11.2969C17.4312 11.2659 17.545 11.2972 17.5996 11.3945L18.4736 12.8643C18.5237 12.9528 18.5009 13.0728 18.4189 13.1348L17.4951 13.834C17.5179 13.9668 17.5273 14.1084 17.5273 14.25C17.5273 14.396 17.5182 14.5333 17.5 14.666L18.4141 15.3652C18.5005 15.4272 18.5234 15.5383 18.4688 15.6357L17.5947 17.1055C17.5402 17.2025 17.4271 17.2382 17.3271 17.2031L16.2393 16.7783C16.0163 16.9465 15.7704 17.0881 15.502 17.1943L15.3379 18.3184C15.3242 18.4246 15.2332 18.4999 15.124 18.5H13.376C13.2668 18.4999 13.18 18.4246 13.1572 18.3184L12.9941 17.1943C12.7258 17.0882 12.4843 16.9464 12.2568 16.7783L11.1689 17.2031C11.0688 17.2341 10.955 17.2028 10.9004 17.1055L10.0264 15.6357C9.9763 15.5472 9.99913 15.4272 10.0811 15.3652L11.0049 14.666C10.9821 14.5332 10.9727 14.3872 10.9727 14.25C10.9727 14.1128 10.9909 13.9667 11.0137 13.834L10.0898 13.1348C9.99885 13.0728 9.98061 12.9572 10.0352 12.8643L10.9053 11.3945C10.9598 11.2975 11.0729 11.2618 11.1729 11.2969L12.2607 11.7217C12.4837 11.5579 12.7296 11.4119 12.998 11.3057L13.1621 10.1816C13.1803 10.0754 13.2668 10.0001 13.376 10H15.124ZM9.11133 18H2V10.8887H9.11133V18ZM3.77734 16.2227H7.33301V12.667H3.77734V16.2227ZM14.25 12.6562C13.3488 12.6562 12.6113 13.3734 12.6113 14.25C12.6113 15.1266 13.3488 15.8438 14.25 15.8438C15.1512 15.8437 15.8887 15.1266 15.8887 14.25C15.8887 13.3734 15.1512 12.6563 14.25 12.6562ZM9.11133 9.11133H2V2H9.11133V9.11133ZM18 9.11133H10.8887V2H18V9.11133ZM3.77734 7.33301H7.33301V3.77734H3.77734V7.33301ZM12.667 7.33301H16.2227V3.77734H12.667V7.33301Z" fill="var(--fill-0, #0D4AC3)"/>
</g>
</svg>
